<svg width="1500" height="1500" version="1.1" xmlns="http://www.w3.org/2000/svg" desc="Created with imagetracer.js version 1.2.6" ><path fill="#ffffff" stroke="#ffffff" stroke-width="1" opacity="0" d="M 0 0 L 1500 0 L 1500 1500 L 0 1500 L 0 0 Z M 1185 315 L 978 419 L 957 428 L 956 431 L 964 434 L 979 435 L 990 438 L 998 438 L 1002 440 L 1013 441 L 1017 443 Q 1027 443 1035 447 L 1041 447 L 1056 450 L 1060 454 L 1024 514 L 993 560 L 971 590 L 936 633 Q 937 635 934 634 L 930 641 L 895 680 Q 896 682 894 681 L 883 693 Q 884 695 882 694 L 854 723 Q 851 722 852 725 L 851 725 L 812 763 L 785 786 Q 782 785 783 788 L 745 820 L 693 857 Q 690 856 691 859 L 686 861 Q 655 886 620 905 L 617 905 L 628 898 L 635 890 L 635 882 L 630 874 L 620 868 L 599 862 L 575 862 L 574 863 L 557 864 Q 533 869 515 879 L 514 882 L 516 889 Q 523 898 536 903 L 558 910 L 569 912 L 593 912 L 601 910 L 608 910 L 609 910 L 566 936 L 546 946 L 534 950 L 512 962 L 496 968 L 492 971 L 487 972 L 485 974 L 457 984 L 453 984 L 467 975 L 469 972 L 468 964 L 457 954 L 436 946 L 421 943 L 382 943 L 356 949 L 347 955 L 339 956 L 330 959 L 324 959 L 315 962 L 308 962 L 304 964 L 293 965 L 289 968 L 293 970 L 302 970 L 313 967 L 319 967 L 332 964 L 339 964 L 346 962 L 353 964 L 358 969 L 378 979 L 397 985 L 418 987 L 419 988 L 448 987 L 450 992 L 454 994 L 471 991 L 474 989 L 478 990 Q 466 994 458 1001 L 436 1023 Q 428 1033 425 1049 L 426 1063 L 394 1074 L 390 1074 L 387 1076 Q 383 1075 384 1078 L 382 1078 L 380 1081 L 394 1080 L 397 1078 L 405 1077 L 442 1065 L 451 1064 L 460 1061 L 473 1055 L 491 1043 Q 509 1029 519 1007 L 519 993 L 516 988 L 508 985 Q 494 983 487 987 L 483 987 L 499 982 L 509 977 L 546 964 L 566 953 L 579 948 L 587 942 L 639 915 L 678 891 L 742 847 L 744 847 L 809 796 Q 811 797 810 794 Q 834 777 855 755 Q 857 756 856 754 L 875 737 L 876 734 L 878 734 L 942 670 Q 941 667 944 668 L 974 635 Q 973 632 976 633 L 980 628 Q 979 625 982 626 L 993 613 Q 992 610 995 611 L 999 605 L 1014 589 L 1058 535 L 1092 490 L 1100 482 L 1110 497 L 1113 505 L 1125 526 L 1151 567 L 1153 564 L 1156 531 L 1159 517 L 1160 502 L 1162 496 L 1163 481 L 1165 475 L 1165 467 L 1168 452 L 1169 437 L 1171 431 L 1172 417 L 1175 406 L 1175 398 L 1178 386 L 1181 358 L 1187 328 L 1187 316 L 1185 315 Z M 704 413 L 703 414 L 691 414 L 685 416 L 670 417 L 644 423 L 606 436 L 604 438 L 591 442 L 566 454 L 554 458 L 552 460 L 528 469 L 492 479 L 478 480 L 470 482 L 445 482 L 413 476 L 396 470 L 364 452 L 356 454 L 350 460 L 346 473 L 348 482 L 353 491 Q 365 506 383 515 L 416 528 L 419 532 L 429 565 L 446 604 L 474 657 L 518 725 Q 544 762 574 795 Q 578 802 587 805 Q 595 804 598 799 L 594 791 L 570 764 L 533 715 L 488 644 L 453 574 L 438 531 L 470 531 L 471 530 L 486 529 L 496 526 L 505 525 L 536 516 L 558 507 L 561 507 L 606 487 L 640 475 L 651 472 L 656 472 L 664 469 L 670 469 L 682 466 L 691 466 L 692 465 L 732 465 L 755 469 L 778 475 L 814 492 L 836 507 L 853 523 Q 855 522 854 525 L 857 526 L 898 573 L 914 595 L 924 604 L 927 605 Q 933 606 937 604 L 957 579 L 957 576 L 954 570 L 929 534 L 903 500 L 894 491 L 892 488 L 872 467 L 847 448 L 818 432 Q 808 431 803 426 L 773 417 L 760 416 L 754 414 L 742 414 L 741 413 L 704 413 Z M 1016 614 L 1010 617 L 993 636 L 987 645 Q 986 649 989 651 L 1015 673 Q 1014 675 1017 674 L 1046 710 L 1063 741 L 1078 791 L 1080 814 L 1081 815 L 1081 830 L 1082 831 L 1081 879 L 1079 886 L 1077 908 L 1076 909 L 1075 925 L 1069 956 L 1069 1003 L 1071 1010 L 1073 1028 L 1075 1032 L 1076 1044 L 1071 1043 L 1061 1043 L 1045 1040 L 1037 1040 L 1032 1038 L 1018 1037 L 1013 1035 L 1002 1034 L 993 1031 Q 983 1031 978 1028 L 972 1028 L 952 1022 L 948 1022 L 941 1019 L 914 1012 L 868 996 L 835 981 L 830 980 Q 796 965 767 947 Q 759 948 756 954 Q 755 959 757 961 L 777 973 L 820 995 L 856 1011 L 859 1011 L 869 1016 L 901 1027 L 904 1027 L 918 1033 L 933 1036 L 951 1042 L 960 1043 L 964 1045 L 974 1046 L 1013 1055 L 1036 1058 L 1037 1059 L 1047 1059 L 1052 1061 L 1067 1062 L 1082 1065 L 1087 1071 Q 1093 1087 1104 1100 Q 1113 1110 1126 1118 L 1135 1122 L 1148 1125 Q 1155 1126 1159 1123 Q 1164 1120 1166 1114 Q 1168 1098 1159 1093 Q 1160 1090 1157 1091 L 1144 1073 L 1133 1052 L 1125 1029 L 1119 999 L 1119 964 L 1121 955 L 1121 945 L 1131 899 L 1131 892 L 1134 879 L 1135 860 L 1136 859 L 1136 846 L 1137 845 L 1137 827 L 1136 826 L 1136 811 L 1134 800 L 1134 790 L 1131 779 L 1130 769 L 1121 743 L 1121 740 Q 1112 715 1099 694 L 1090 680 L 1068 653 Q 1052 636 1034 622 L 1023 615 L 1016 614 Z M 825 682 L 808 685 L 791 691 L 777 698 L 756 713 L 747 725 L 748 729 L 757 736 L 771 740 L 800 740 Q 807 737 817 736 Q 834 731 847 721 Q 856 714 862 703 Q 864 692 860 688 L 843 682 L 825 682 Z M 745 747 Q 707 755 683 776 L 677 784 L 678 791 L 686 796 L 705 801 L 735 801 L 736 800 L 744 800 L 767 793 L 780 784 L 783 782 L 793 772 L 794 769 Q 795 762 793 759 L 786 752 L 776 748 L 771 747 L 745 747 Z M 847 780 L 835 783 L 824 790 L 808 809 L 801 823 Q 801 829 798 832 L 797 841 L 795 845 L 795 866 L 796 871 L 800 882 L 804 885 L 811 885 L 817 882 L 829 872 Q 828 869 831 870 L 844 854 L 853 839 L 859 827 L 863 808 L 862 793 L 859 787 Q 860 784 857 785 L 857 783 L 847 780 Z M 669 809 L 668 810 L 653 811 L 650 813 L 630 817 L 611 826 L 596 837 L 596 843 L 599 847 L 616 856 L 635 860 L 673 860 Q 674 858 679 859 L 697 852 L 711 841 Q 720 837 720 824 L 709 814 Q 702 814 700 811 L 684 810 L 683 809 L 669 809 Z M 767 838 Q 752 842 742 851 Q 730 862 722 878 L 717 891 L 714 908 L 715 928 L 718 937 Q 720 943 729 941 L 731 941 Q 741 937 749 929 Q 762 917 771 902 L 780 885 L 784 871 Q 786 855 781 847 Q 777 839 767 838 Z M 687 894 L 671 898 L 660 905 Q 635 924 627 961 Q 625 981 631 991 L 634 992 L 642 991 L 649 988 Q 661 981 671 972 Q 670 969 673 970 L 674 967 L 677 966 Q 676 963 679 964 L 696 942 L 702 928 L 704 917 L 703 906 L 699 900 L 693 895 L 687 894 Z M 489 906 L 481 908 L 467 909 L 463 911 L 455 912 L 435 921 L 430 926 Q 429 932 433 934 Q 432 936 435 935 L 436 938 L 455 948 L 483 954 L 515 954 Q 516 952 521 953 Q 535 949 546 942 Q 551 939 553 932 Q 554 926 551 924 Q 542 914 529 909 L 515 906 L 489 906 Z M 596 944 L 584 947 L 564 959 Q 550 971 540 988 L 533 1005 L 530 1021 L 531 1030 L 533 1033 L 536 1034 L 546 1034 L 559 1030 L 584 1014 L 605 992 L 614 976 L 616 968 Q 618 957 614 952 L 609 946 L 602 944 L 596 944 Z M 345 978 L 341 980 L 332 981 L 311 987 L 307 987 L 285 994 L 283 998 L 291 998 Q 296 995 305 995 L 313 992 L 318 992 L 326 989 L 331 989 Q 337 985 348 985 L 352 983 L 353 980 Q 351 976 345 978 Z M 382 988 L 381 989 L 363 991 L 346 996 L 320 1009 L 312 1018 Q 308 1023 301 1025 L 272 1032 L 268 1034 L 259 1035 L 245 1040 Q 240 1039 242 1043 L 245 1044 L 261 1042 L 265 1040 L 274 1039 L 278 1037 L 287 1036 L 291 1034 L 302 1032 L 310 1032 L 327 1039 L 351 1040 L 352 1041 L 364 1040 L 387 1035 Q 401 1031 412 1023 Q 419 1018 423 1009 Q 425 1001 422 998 Q 416 992 407 990 L 382 988 Z M 400 1044 L 382 1050 L 378 1050 L 363 1056 L 344 1060 L 341 1063 L 343 1065 L 357 1064 L 374 1058 L 378 1058 L 381 1056 L 401 1051 L 407 1047 L 407 1044 L 400 1044 Z " /><path fill="#ffffff" stroke="#ffffff" stroke-width="1" opacity="0.8117647058823529" d="M 1184.5 315 L 1187 315.5 L 1187 327.5 L 1181 357.5 L 1178 385.5 L 1175 397.5 L 1175 405.5 L 1172 416.5 L 1171 430.5 L 1169 436.5 L 1168 451.5 L 1165 466.5 L 1165 474.5 L 1163 480.5 L 1162 495.5 L 1160 501.5 L 1159 516.5 L 1156 530.5 L 1153 563.5 L 1150.5 567 L 1125 525.5 L 1113 504.5 L 1110 496.5 L 1099.5 482 L 1092 489.5 L 1058 534.5 L 1014 588.5 L 999 604.5 L 995 611 Q 992.3 609.9 993 612.5 L 982 626 Q 979.3 624.9 980 627.5 L 976 633 Q 973.3 631.9 974 634.5 L 943.5 668 Q 941.3 667.3 942 669.5 L 877.5 734 L 876 734 L 874.5 737 L 856 753.5 Q 856.8 755.8 854.5 755 Q 834 776.6 810 794 Q 811.1 796.7 808.5 796 L 743.5 847 L 741.5 847 L 677.5 891 L 638.5 915 L 586.5 942 L 578.5 948 L 565.5 953 L 545.5 964 L 487 985.5 L 491.5 986 L 492.5 985 L 507.5 985 L 516 988 L 519 992.5 L 519 1006.5 Q 508.8 1028.8 490.5 1043 L 472.5 1055 L 459.5 1061 L 450.5 1064 L 441.5 1065 L 404.5 1077 L 397.5 1078 L 397.5 1077 L 417.5 1072 L 439.5 1064 L 448.5 1063 L 458.5 1060 L 486.5 1044 L 502 1031 L 516 1011.5 L 517 993.5 L 512.5 988 L 509.5 987 L 491.5 987 Q 475.8 990.3 464.5 998 L 438 1022.5 L 431 1033.5 L 430 1039.5 L 427 1044.5 L 426 1053.5 L 429 1063 L 418.5 1067 L 411.5 1068 L 400.5 1073 L 394.5 1074 L 394.5 1073 L 426 1063 L 425 1048.5 Q 428.4 1033.4 436 1022.5 L 457.5 1001 Q 466 993.5 478 989.5 L 473.5 989 L 470.5 991 L 458.5 993 L 458.5 992 L 482.5 986 L 499.5 979 L 505.5 978 L 525.5 969 L 531.5 968 L 584.5 943 L 589.5 939 L 624.5 921 L 673.5 892 L 721.5 860 L 783.5 815 L 832.5 774 Q 887.1 724.6 938 671.5 L 940 668.5 L 973 634.5 L 1016 584.5 L 1073 513.5 L 1096 481 L 1100.5 480 L 1150.5 565 Q 1153.1 560.1 1152 551.5 L 1154 545.5 L 1154 535.5 L 1157 520.5 L 1158 505.5 L 1161 493.5 L 1161 484.5 L 1164 471.5 L 1164 462.5 L 1167 448.5 L 1168 434.5 L 1170 429.5 L 1171 414.5 L 1173 410.5 L 1174 394.5 L 1177 382.5 L 1177 373.5 L 1185 332.5 L 1186 316 L 1175.5 320 L 1167.5 326 L 1156.5 330 L 1096.5 361 L 1081.5 367 L 1058.5 380 L 1035.5 390 L 1014.5 402 L 958 429.5 Q 957.2 432.1 960.5 431 L 966.5 433 L 974.5 433 L 984.5 436 L 997.5 437 L 1002.5 439 L 1027.5 443 L 1031.5 445 L 1057.5 449 L 1061 452.5 L 1059 459.5 L 1035 498.5 L 986 571.5 L 924 649.5 L 876.5 702 Q 874.3 701.3 875 703.5 Q 840.4 740.1 802 772 L 798.5 777 L 745.5 821 L 693.5 859 L 650.5 888 L 571.5 934 L 512.5 963 L 485.5 974 L 486.5 972 L 491.5 971 L 495.5 968 L 511.5 962 L 533.5 950 L 545.5 946 L 565.5 936 L 608 910.5 L 600.5 910 L 592.5 912 L 568.5 912 L 554 908.5 L 557.5 908 L 563.5 910 L 592.5 910 L 612.5 906 Q 624.3 900.8 632 891.5 Q 635 889.5 634 883.5 L 624.5 872 L 618.5 869 L 600.5 864 Q 595.8 865.3 594.5 863 L 576.5 863 L 568.5 865 L 553.5 866 Q 550 869.5 542.5 869 L 526.5 875 L 516 881.5 L 516 886.5 L 525.5 896 L 536.5 902 L 553 907.5 L 550.5 908 L 527.5 899 L 516 888.5 L 514 881.5 L 515 879 Q 532.9 869.2 556.5 864 L 573.5 863 L 574.5 862 L 598.5 862 L 619.5 868 L 630 874 L 635 881.5 L 635 889.5 L 627.5 898 L 621 902.5 L 622.5 903 Q 656.6 884.6 685.5 861 L 691 859 Q 689.9 856.3 692.5 857 L 744.5 820 L 783 787.5 Q 782.3 785.3 784.5 786 L 811.5 763 L 850.5 725 L 852 725 Q 850.9 722.3 853.5 723 L 881.5 694 Q 883.8 694.8 883 692.5 L 893.5 681 Q 895.8 681.8 895 679.5 L 930 640.5 L 934 634 Q 936.7 635.1 936 632.5 L 971 589.5 L 993 559.5 L 1024 513.5 L 1060 453.5 L 1055.5 450 L 1040.5 447 L 1034.5 447 Q 1027.1 443.4 1016.5 443 L 1012.5 441 L 1001.5 440 L 997.5 438 L 989.5 438 L 978.5 435 L 963.5 434 L 956 430.5 L 957 428 L 977.5 419 L 1184.5 315 Z M 618 904 L 618 905 L 620 905 L 618 904 Z M 484 986 L 484 987 L 487 987 L 484 986 Z " /><path fill="#ffffff" stroke="#ffffff" stroke-width="1" opacity="0.8117647058823529" d="M 703.5 413 L 740.5 413 L 741.5 414 L 753.5 414 L 759.5 416 L 772.5 417 L 802.5 426 Q 808.5 430.5 817.5 432 L 846.5 448 L 871.5 467 L 892 487.5 L 894 490.5 L 903 499.5 L 929 533.5 L 954 569.5 L 957 575.5 L 957 578.5 L 936.5 604 Q 933.3 606.3 926.5 605 L 923.5 604 L 914 594.5 L 898 572.5 L 856.5 526 L 854 524.5 Q 854.8 522.3 852.5 523 L 835.5 507 L 813.5 492 L 777.5 475 L 754.5 469 L 731.5 465 L 691.5 465 L 690.5 466 L 681.5 466 L 669.5 469 L 663.5 469 L 655.5 472 L 650.5 472 L 639.5 475 L 605.5 487 L 560.5 507 L 557.5 507 L 535.5 516 L 504.5 525 L 495.5 526 L 485.5 529 L 470.5 530 L 469.5 531 L 438 531 L 453 573.5 L 488 643.5 L 533 714.5 L 570 763.5 L 594 790.5 L 598 798.5 Q 594.8 804.3 586.5 805 Q 578.3 801.7 574 794.5 Q 544 761.5 518 724.5 L 474 656.5 L 446 603.5 L 429 564.5 L 419 531.5 L 415.5 528 L 382.5 515 Q 364.5 506 353 490.5 L 348 481.5 L 346 472.5 L 350 459.5 L 355.5 454 L 363.5 452 L 395.5 470 L 412.5 476 L 444.5 482 L 469.5 482 L 477.5 480 L 491.5 479 L 527.5 469 L 551.5 460 L 553.5 458 L 565.5 454 L 590.5 442 L 603.5 438 L 605.5 436 L 643.5 423 L 669.5 417 L 684.5 416 L 690.5 414 L 702.5 414 L 703.5 413 Z M 710 414 L 709 415 L 691 415 L 685 417 L 668 419 L 663 421 L 658 421 L 650 424 L 645 424 L 607 437 L 565 456 L 527 471 L 495 480 L 482 481 L 475 483 L 440 483 L 423 480 L 395 471 L 378 462 L 370 456 L 364 454 L 356 456 Q 350 460 348 468 L 348 479 L 358 495 L 361 496 L 362 499 L 384 514 L 408 524 L 417 526 L 420 531 L 422 541 L 434 574 L 436 576 L 447 603 L 475 656 L 503 701 L 534 745 L 564 782 L 573 791 L 575 794 L 587 804 L 593 802 L 596 798 L 596 796 Q 566 763 540 727 L 496 660 L 461 595 L 454 577 L 452 575 L 451 570 L 449 568 L 448 562 L 446 560 L 442 546 L 436 532 L 438 529 L 443 530 L 467 530 L 468 529 L 483 528 L 499 524 L 504 524 L 507 522 L 515 521 Q 525 516 538 514 L 552 508 L 555 508 L 580 496 L 583 496 L 595 490 L 600 489 L 602 487 L 608 486 L 618 481 L 633 477 L 642 473 L 667 467 L 674 467 L 679 465 L 703 464 L 704 463 L 724 463 L 725 464 L 744 465 L 770 471 L 789 478 L 808 487 L 824 497 Q 843 510 860 527 Q 890 558 915 594 L 925 603 Q 928 605 935 604 L 956 579 L 956 576 L 952 569 Q 943 560 938 549 L 907 507 L 896 495 L 894 492 Q 863 455 817 433 L 787 422 Q 777 421 770 418 L 758 417 L 751 415 L 737 415 L 736 414 L 710 414 Z " /><path fill="#ffffff" stroke="#ffffff" stroke-width="1" opacity="0.8117647058823529" d="M 1015.5 614 L 1022.5 615 L 1033.5 622 Q 1052.5 635.5 1068 652.5 L 1090 679.5 L 1099 693.5 Q 1111.9 714.6 1121 739.5 L 1121 742.5 L 1130 768.5 L 1131 778.5 L 1134 789.5 L 1134 799.5 L 1136 810.5 L 1136 825.5 L 1137 826.5 L 1137 844.5 L 1136 845.5 L 1136 858.5 L 1135 859.5 L 1134 878.5 L 1131 891.5 L 1131 898.5 L 1121 944.5 L 1121 954.5 L 1119 963.5 L 1119 998.5 L 1125 1028.5 L 1133 1051.5 L 1144 1072.5 L 1157 1091 Q 1159.7 1089.9 1159 1092.5 Q 1167.5 1098 1166 1113.5 Q 1164.4 1120.4 1158.5 1123 Q 1154.9 1125.9 1147.5 1125 L 1134.5 1122 L 1125.5 1118 Q 1113.2 1110.3 1104 1099.5 Q 1093.5 1087 1087 1070.5 L 1081.5 1065 L 1066.5 1062 L 1051.5 1061 L 1046.5 1059 L 1036.5 1059 L 1035.5 1058 L 1012.5 1055 L 973.5 1046 L 963.5 1045 L 959.5 1043 L 950.5 1042 L 932.5 1036 L 917.5 1033 L 903.5 1027 L 900.5 1027 L 868.5 1016 L 858.5 1011 L 855.5 1011 L 819.5 995 L 776.5 973 L 757 961 Q 755.4 958.9 756 953.5 Q 759.1 948.1 766.5 947 Q 796.4 965.1 829.5 980 L 834.5 981 L 867.5 996 L 913.5 1012 L 940.5 1019 L 947.5 1022 L 951.5 1022 L 971.5 1028 L 977.5 1028 Q 983.2 1031.3 992.5 1031 L 1001.5 1034 L 1012.5 1035 L 1017.5 1037 L 1031.5 1038 L 1036.5 1040 L 1044.5 1040 L 1060.5 1043 L 1070.5 1043 L 1076 1044 L 1075 1031.5 L 1073 1027.5 L 1071 1009.5 L 1069 1002.5 L 1069 955.5 L 1075 924.5 L 1076 908.5 L 1077 907.5 L 1079 885.5 L 1081 878.5 L 1082 830.5 L 1081 829.5 L 1081 814.5 L 1080 813.5 L 1078 790.5 L 1063 740.5 L 1046 709.5 L 1017 674 Q 1014.3 675.1 1015 672.5 L 989 650.5 Q 986.4 649.1 987 644.5 L 993 635.5 L 1009.5 617 L 1015.5 614 Z M 1017 615 L 1011 617 L 1011 619 L 994 637 L 988 646 L 990 651 L 1007 663 Q 1039 691 1060 731 L 1067 747 L 1067 750 L 1073 765 L 1074 772 L 1076 775 L 1077 784 L 1080 794 L 1080 801 L 1082 808 L 1082 820 L 1083 821 L 1083 874 L 1082 875 L 1082 884 L 1080 889 L 1079 905 L 1077 911 L 1076 928 L 1074 933 L 1073 947 L 1071 952 L 1071 961 L 1070 962 L 1070 996 L 1071 997 L 1071 1006 L 1073 1012 L 1074 1025 L 1076 1028 Q 1076 1037 1079 1043 L 1078 1045 L 1068 1045 L 1060 1043 L 1036 1041 L 1023 1038 L 1016 1038 L 1012 1036 L 1000 1035 L 996 1033 L 986 1032 L 982 1030 L 971 1029 L 922 1016 L 919 1014 L 904 1010 L 901 1008 L 894 1007 L 875 1000 L 829 981 L 815 973 L 810 972 L 798 966 L 767 948 Q 760 950 757 955 L 758 960 L 795 981 L 841 1003 L 881 1019 L 914 1029 L 917 1031 L 925 1032 L 928 1034 L 935 1035 L 953 1041 L 976 1045 L 985 1048 L 990 1048 L 994 1050 Q 1006 1050 1015 1054 L 1029 1055 L 1034 1057 L 1050 1058 L 1055 1060 L 1071 1061 L 1084 1064 L 1105 1099 Q 1115 1111 1130 1119 L 1149 1124 L 1158 1122 L 1165 1113 L 1164 1102 L 1162 1098 L 1145 1077 L 1130 1049 L 1123 1027 L 1117 996 L 1117 972 L 1118 971 L 1119 954 L 1120 953 L 1121 936 L 1126 919 L 1126 913 L 1129 903 L 1130 890 L 1133 876 L 1134 858 L 1135 857 L 1135 812 L 1134 811 L 1132 786 L 1127 768 L 1126 759 L 1117 736 L 1117 733 L 1101 700 Q 1088 676 1070 657 L 1043 630 L 1025 617 L 1017 615 Z " /><path fill="#ffffff" stroke="#ffffff" stroke-width="1" opacity="0.8117647058823529" d="M 824.5 682 L 842.5 682 L 846 683.5 L 842.5 684 L 841.5 683 L 826.5 683 L 809.5 686 L 789.5 693 Q 767.6 702.6 752 718.5 Q 748.1 721.1 749 728.5 L 758.5 735 L 768.5 738 Q 773.2 736.8 774.5 739 L 795.5 739 L 823.5 732 L 843.5 721 L 857 708.5 L 861 699.5 L 861 693.5 L 859 689 L 847 684.5 L 850.5 684 L 860 688 Q 863.8 691.7 862 702.5 Q 856.2 713.7 846.5 721 Q 833.7 730.7 816.5 736 Q 806.5 736.5 799.5 740 L 770.5 740 L 756.5 736 L 748 728.5 L 747 724.5 L 755.5 713 L 776.5 698 L 790.5 691 L 807.5 685 L 824.5 682 Z " /><path fill="#ffffff" stroke="#ffffff" stroke-width="1" opacity="0.8117647058823529" d="M 744.5 747 L 770.5 747 L 775.5 748 L 785.5 752 L 793 758.5 Q 795.3 761.7 794 768.5 L 793 771.5 L 782.5 782 L 779.5 784 L 766.5 793 L 743.5 800 L 735.5 800 L 734.5 801 L 704.5 801 L 685.5 796 L 678 790.5 L 677 783.5 L 682.5 776 Q 706.7 754.7 744.5 747 Z M 752 748 L 730 752 L 712 759 L 695 768 L 687 775 L 684 777 L 678 785 L 679 790 L 687 795 L 707 800 L 733 800 L 734 799 L 746 798 L 770 789 L 784 779 Q 786 780 785 778 L 788 776 L 793 766 L 792 760 L 787 754 L 775 749 L 752 748 Z " /><path fill="#ffffff" stroke="#ffffff" stroke-width="1" opacity="0.8117647058823529" d="M 846.5 780 L 857 783 L 857 785 Q 859.7 783.9 859 786.5 L 862 792.5 L 863 807.5 L 859 826.5 L 853 838.5 L 844 853.5 L 831 870 Q 828.3 868.9 829 871.5 L 816.5 882 L 808.5 885 L 808.5 884 Q 819.8 879.8 827 871.5 Q 826.3 869.3 828.5 870 L 846 848.5 L 857 827.5 L 861 814.5 L 862 800.5 L 859 788.5 L 854.5 783 L 844.5 782 Q 825.7 786.7 816 800.5 Q 804.5 814 799 833.5 L 796 845.5 L 796 863.5 L 799 875.5 L 803 884 L 805 884.5 L 803.5 885 L 800 881.5 L 796 870.5 L 795 865.5 L 795 844.5 L 797 840.5 L 798 831.5 Q 801 828.5 801 822.5 L 808 808.5 L 823.5 790 L 834.5 783 L 846.5 780 Z " /><path fill="#ffffff" stroke="#ffffff" stroke-width="1" opacity="0.8117647058823529" d="M 668.5 809 L 682.5 809 L 683.5 810 L 699.5 811 Q 702.5 814 708.5 814 L 720 823.5 Q 719.8 836.8 710.5 841 L 696.5 852 L 678.5 859 Q 673.8 857.7 672.5 860 L 634.5 860 L 615.5 856 L 599 847 L 596 842.5 L 596 836.5 L 610.5 826 L 629.5 817 L 649.5 813 L 652.5 811 L 667.5 810 L 668.5 809 Z M 673 810 L 672 811 L 655 812 L 630 819 Q 613 825 600 835 L 597 839 L 598 844 L 611 852 L 622 856 L 637 859 L 668 859 Q 669 857 675 858 L 678 856 L 682 856 L 693 852 L 707 843 L 716 834 L 718 829 L 717 823 Q 710 815 699 812 L 673 810 Z " /><path fill="#ffffff" stroke="#ffffff" stroke-width="1" opacity="0.8117647058823529" d="M 766.5 838 Q 777.2 838.8 781 846.5 Q 786.2 854.8 784 870.5 L 783 870.5 L 783 855.5 Q 780.6 845.9 773.5 841 L 765.5 840 L 748.5 847 L 736 858.5 Q 726.7 869.2 721 883.5 L 717 896.5 L 715 917.5 L 716 918.5 L 717 929.5 L 722.5 940 L 724 940.5 L 722.5 941 L 716 932.5 L 715 919.5 L 714 918.5 L 714 907.5 L 717 890.5 L 722 877.5 Q 729.6 862.1 741.5 851 Q 751.6 842.1 766.5 838 Z " /><path fill="#ffffff" stroke="#ffffff" stroke-width="1" opacity="0.8117647058823529" d="M 782.5 872 L 783 874.5 L 780 884.5 L 771 901.5 Q 761.5 917 748.5 929 Q 741.1 936.6 730.5 941 L 730.5 940 Q 746.4 931.9 757 918.5 Q 774.3 899.8 782.5 872 Z " /><path fill="#ffffff" stroke="#ffffff" stroke-width="1" opacity="0.8117647058823529" d="M 686.5 894 L 692.5 895 L 699 899.5 L 703 905.5 L 704 916.5 L 703 916.5 Q 702.7 902.8 694.5 897 L 682.5 896 L 667.5 901 L 648 918.5 Q 638.9 929.4 633 943.5 L 629 956.5 L 628 974.5 Q 630.8 976.3 629 982.5 L 633.5 991 L 638 991.5 L 633.5 992 L 631 991 Q 624.6 980.7 627 960.5 Q 634.9 924.4 659.5 905 L 670.5 898 L 686.5 894 Z " /><path fill="#ffffff" stroke="#ffffff" stroke-width="1" opacity="0.8117647058823529" d="M 488.5 906 L 514.5 906 L 528.5 909 Q 542.3 913.7 551 923.5 Q 553.7 925.8 553 931.5 Q 551.2 938.7 545.5 942 Q 534.6 949.1 520.5 953 Q 515.8 951.8 514.5 954 L 482.5 954 L 454.5 948 L 436 938 L 434.5 935 Q 432.3 935.8 433 933.5 Q 429.1 931.9 430 925.5 L 434.5 921 L 454.5 912 L 472.5 908 L 486.5 907 L 486.5 908 L 473.5 909 L 456.5 913 L 438.5 920 L 431 926.5 L 431 929.5 L 438.5 937 Q 448.4 945.1 462.5 949 L 475.5 952 L 501.5 953 L 502.5 952 L 515.5 952 L 519.5 950 L 528.5 949 L 541.5 943 L 549 935.5 L 551 927.5 Q 549.6 921.4 544.5 919 Q 535.8 912.2 523.5 909 L 512.5 907 L 488.5 907 L 488.5 906 Z " /><path fill="#ffffff" stroke="#ffffff" stroke-width="1" opacity="0.8117647058823529" d="M 702.5 918 L 703 923.5 L 696 941.5 L 678.5 964 Q 676.3 963.3 677 965.5 L 674 967 L 672.5 970 Q 670.3 969.3 671 971.5 Q 658.7 984.7 639.5 991 L 639.5 990 L 657.5 981 L 680 960.5 L 694 942.5 Q 700.5 932.5 702.5 918 Z " /><path fill="#ffffff" stroke="#ffffff" stroke-width="1" opacity="0.8117647058823529" d="M 381.5 943 L 420.5 943 L 435.5 946 L 458.5 955 L 468 963.5 L 469 971.5 L 466.5 975 L 453 983.5 L 456.5 984 L 465.5 981 L 465.5 982 L 453.5 986 L 450 988.5 L 449.5 990 L 447.5 987 L 418.5 988 L 417.5 987 L 396.5 985 L 377.5 979 L 357.5 969 L 352.5 964 L 345.5 962 L 338.5 964 L 331.5 964 L 330.5 965 L 313.5 967 L 313.5 966 L 324.5 965 L 344.5 960 L 350.5 960 Q 356.1 966.9 364.5 971 L 384.5 980 L 405.5 985 L 428.5 987 L 429.5 986 L 445.5 985 L 451.5 983 L 465 974.5 Q 468.6 972.6 468 966.5 L 454.5 955 L 433.5 947 L 428.5 947 L 415.5 944 L 382.5 944 Q 381.3 946.2 376.5 945 L 376.5 944 L 381.5 943 Z " /><path fill="#ffffff" stroke="#ffffff" stroke-width="1" opacity="0.8117647058823529" d="M 595.5 944 L 601.5 944 L 608.5 946 L 614 951.5 Q 617.6 956.9 616 967.5 L 615 967.5 L 615 959.5 L 611 950 L 601.5 946 L 593.5 946 Q 569.2 951.7 556 968.5 Q 545 979.5 538 994.5 L 534 1006.5 L 534 1011.5 L 532 1014.5 L 532 1027.5 L 534 1032 Q 537 1034 544.5 1033 L 557.5 1029 L 578.5 1016 L 603 992.5 L 613 975.5 L 614.5 969 L 615 971.5 L 605 991.5 L 583.5 1014 L 558.5 1030 L 545.5 1034 L 535.5 1034 L 533 1033 L 531 1029.5 L 530 1020.5 L 533 1004.5 L 540 987.5 Q 549.5 971 563.5 959 L 583.5 947 L 595.5 944 Z " /><path fill="#ffffff" stroke="#ffffff" stroke-width="1" opacity="0.8117647058823529" d="M 371.5 945 L 375 945.5 L 356.5 950 L 348.5 956 L 319.5 961 L 314.5 963 L 308.5 963 L 299.5 966 L 295.5 966 L 290.5 969 Q 287.5 967.5 290.5 966 L 346.5 955 L 355.5 949 L 371.5 945 Z " /><path fill="#ffffff" stroke="#ffffff" stroke-width="1" opacity="0.8117647058823529" d="M 308.5 967 L 312 967.5 L 303.5 969 L 303.5 968 L 308.5 967 Z " /><path fill="#ffffff" stroke="#ffffff" stroke-width="1" opacity="0.8117647058823529" d="M 292.5 969 L 302 969.5 L 292.5 970 L 292.5 969 Z " /><path fill="#ffffff" stroke="#ffffff" stroke-width="1" opacity="0.8117647058823529" d="M 482.5 974 L 484 974.5 L 467.5 981 L 467.5 980 L 482.5 974 Z " /><path fill="#ffffff" stroke="#ffffff" stroke-width="1" opacity="0.8117647058823529" d="M 344.5 978 Q 351.3 976.3 353 979.5 L 352 983 L 347.5 985 Q 337.2 985.2 330.5 989 L 325.5 989 L 317.5 992 L 312.5 992 L 304.5 995 Q 295.9 994.9 290.5 998 L 283 998 L 284.5 994 L 306.5 987 L 310.5 987 L 331.5 981 L 340.5 980 L 344.5 978 Z M 345 979 L 313 988 L 308 988 L 287 995 Q 284 994 285 997 L 300 995 L 312 991 L 317 991 L 336 985 L 346 984 L 351 981 Q 352 978 345 979 Z " /><path fill="#ffffff" stroke="#ffffff" stroke-width="1" opacity="0.8117647058823529" d="M 381.5 988 L 406.5 990 Q 416.2 991.8 422 997.5 Q 424.5 1001 423 1008.5 Q 419.4 1017.9 411.5 1023 Q 400.7 1030.7 386.5 1035 L 363.5 1040 L 351.5 1041 L 350.5 1040 L 326.5 1039 L 309.5 1032 L 301.5 1032 L 278.5 1037 L 278.5 1036 L 285.5 1035 L 288.5 1033 L 296.5 1032 L 300.5 1030 L 309.5 1029 L 319.5 1035 L 329.5 1038 Q 335 1036.5 336.5 1039 L 359.5 1039 L 384.5 1034 L 400.5 1028 Q 411.4 1022.4 419 1013.5 L 422 1006.5 L 422 1002.5 L 418.5 996 L 404.5 991 Q 393 992.5 385.5 990 L 384.5 991 L 366.5 992 L 362.5 994 L 358.5 994 L 344.5 998 L 324.5 1008 L 311 1019.5 L 307.5 1024 L 303.5 1026 L 287.5 1029 L 280.5 1032 L 271.5 1033 L 267.5 1035 L 248.5 1039 L 244 1041.5 Q 243.4 1044.3 249.5 1043 L 249.5 1044 Q 244.1 1044.6 242 1043 Q 240.3 1038.9 244.5 1040 L 258.5 1035 L 267.5 1034 L 271.5 1032 L 300.5 1025 Q 308.1 1023.1 312 1017.5 L 319.5 1009 L 345.5 996 L 362.5 991 L 380.5 989 L 381.5 988 Z " /><path fill="#ffffff" stroke="#ffffff" stroke-width="1" opacity="0.8117647058823529" d="M 450.5 991 L 451.5 993 L 450.5 991 Z " /><path fill="#ffffff" stroke="#ffffff" stroke-width="1" opacity="0.8117647058823529" d="M 274.5 1037 L 277 1037.5 L 264.5 1040 L 260.5 1042 L 251.5 1043 L 251.5 1042 L 260.5 1041 L 274.5 1037 Z " /><path fill="#ffffff" stroke="#ffffff" stroke-width="1" opacity="0.8117647058823529" d="M 399.5 1044 L 406.5 1044 L 407 1046.5 Q 401.9 1051.9 392.5 1053 L 392.5 1052 Q 401 1051 406 1046.5 Q 406.6 1043.8 400.5 1045 L 396.5 1046 L 396.5 1045 L 399.5 1044 Z " /><path fill="#ffffff" stroke="#ffffff" stroke-width="1" opacity="0.8117647058823529" d="M 392.5 1046 L 395 1046.5 L 374.5 1052 L 369.5 1055 L 359.5 1058 L 344.5 1061 L 343 1062.5 Q 342.5 1065.5 349.5 1064 L 369.5 1059 L 369.5 1060 L 359.5 1062 L 356.5 1064 L 342.5 1065 L 341 1062.5 L 343.5 1060 L 362.5 1056 L 365.5 1054 L 392.5 1046 Z " /><path fill="#ffffff" stroke="#ffffff" stroke-width="1" opacity="0.8117647058823529" d="M 388.5 1053 L 391 1053.5 L 381.5 1056 L 381.5 1055 L 388.5 1053 Z " /><path fill="#ffffff" stroke="#ffffff" stroke-width="1" opacity="0.8117647058823529" d="M 377.5 1056 L 380 1056.5 L 374.5 1058 L 374.5 1057 L 377.5 1056 Z " /><path fill="#ffffff" stroke="#ffffff" stroke-width="1" opacity="0.8117647058823529" d="M 389.5 1074 L 393 1074.5 L 384.5 1077 L 384.5 1076 L 389.5 1074 Z " /><path fill="#ffffff" stroke="#ffffff" stroke-width="1" opacity="0.8117647058823529" d="M 381.5 1078 L 381.5 1080 L 388.5 1080 L 395.5 1078 L 395.5 1079 Q 389.6 1082.3 380 1081 L 381.5 1078 Z " /><path fill="#ffffff" stroke="#ffffff" stroke-width="1" opacity="0.996078431372549" d="M 1184.5 316 L 1186 316.5 L 1186 324.5 L 1180 355.5 L 1179 367.5 L 1177 373.5 L 1177 382.5 L 1174 394.5 L 1173 410.5 L 1171 414.5 L 1170 429.5 L 1168 434.5 L 1167 448.5 L 1164 462.5 L 1164 471.5 L 1161 484.5 L 1161 493.5 L 1158 505.5 L 1157 520.5 L 1154 535.5 L 1154 545.5 L 1152 551.5 Q 1153.1 560.1 1150.5 565 L 1100.5 480 L 1096 481 L 1073 513.5 L 1016 584.5 L 973 634.5 L 940 668.5 L 940 670 Q 937.3 668.9 938 671.5 Q 876.7 735.7 809.5 794 L 750.5 840 L 673.5 892 L 624.5 921 L 564.5 953 L 555.5 956 L 531.5 968 L 525.5 969 L 505.5 978 L 453.5 994 Q 449.5 993.5 450 988.5 L 453.5 986 L 476.5 978 L 486.5 973 L 489.5 973 L 512.5 963 L 571.5 934 L 650.5 888 L 693.5 859 L 745.5 821 L 802 773.5 Q 801.3 771.3 803.5 772 Q 840.7 739.2 875 703.5 Q 874.3 701.3 876.5 702 L 924 649.5 L 986 571.5 L 1035 498.5 L 1059 459.5 L 1061 452.5 L 1057.5 449 L 1031.5 445 L 1027.5 443 L 1017.5 442 L 1013.5 440 L 1002.5 439 L 997.5 437 L 984.5 436 L 974.5 433 L 966.5 433 L 958 431 L 959.5 428 L 1002.5 408 L 1035.5 390 L 1058.5 380 L 1079.5 368 L 1096.5 361 L 1156.5 330 L 1167.5 326 L 1175.5 320 L 1184.5 316 Z " /><path fill="#ffffff" stroke="#ffffff" stroke-width="1" opacity="0.996078431372549" d="M 709.5 414 L 735.5 414 L 736.5 415 L 750.5 415 L 757.5 417 L 769.5 418 Q 776.5 421.5 786.5 422 L 816.5 433 Q 863 454.5 894 491.5 L 896 494.5 L 907 506.5 L 938 548.5 Q 943.4 560.1 952 568.5 L 956 575.5 L 956 578.5 L 934.5 604 Q 927.7 605.3 924.5 603 L 915 593.5 Q 889.5 558 859.5 527 Q 843.2 510.3 823.5 497 L 807.5 487 L 788.5 478 L 769.5 471 L 743.5 465 L 724.5 464 L 723.5 463 L 703.5 463 L 702.5 464 L 678.5 465 L 673.5 467 L 666.5 467 L 641.5 473 L 632.5 477 L 617.5 481 L 607.5 486 L 601.5 487 L 599.5 489 L 594.5 490 L 582.5 496 L 579.5 496 L 554.5 508 L 551.5 508 L 537.5 514 Q 524.5 516 514.5 521 L 506.5 522 L 503.5 524 L 498.5 524 L 482.5 528 L 467.5 529 L 466.5 530 L 442.5 530 L 437.5 529 L 436 531.5 L 442 545.5 L 446 559.5 L 448 561.5 L 449 567.5 L 451 569.5 L 452 574.5 L 454 576.5 L 461 594.5 L 496 659.5 L 540 726.5 Q 566.2 762.8 596 795.5 L 596 797.5 L 592.5 802 L 586.5 804 L 575 793.5 L 573 790.5 L 564 781.5 L 534 744.5 L 503 700.5 L 475 655.5 L 447 602.5 L 436 575.5 L 434 573.5 L 422 540.5 L 420 530.5 L 416.5 526 L 407.5 524 L 383.5 514 L 362 498.5 L 360.5 496 L 358 494.5 L 348 478.5 L 348 467.5 Q 349.9 459.9 355.5 456 L 363.5 454 L 369.5 456 L 377.5 462 L 394.5 471 L 422.5 480 L 439.5 483 L 474.5 483 L 481.5 481 L 494.5 480 L 526.5 471 L 564.5 456 L 606.5 437 L 644.5 424 L 649.5 424 L 657.5 421 L 662.5 421 L 667.5 419 L 684.5 417 L 690.5 415 L 708.5 415 L 709.5 414 Z " /><path fill="#ffffff" stroke="#ffffff" stroke-width="1" opacity="0.996078431372549" d="M 1016.5 615 L 1024.5 617 L 1042.5 630 L 1070 656.5 Q 1087.6 675.9 1101 699.5 L 1117 732.5 L 1117 735.5 L 1126 758.5 L 1127 767.5 L 1132 785.5 L 1134 810.5 L 1135 811.5 L 1135 856.5 L 1134 857.5 L 1133 875.5 L 1130 889.5 L 1129 902.5 L 1126 912.5 L 1126 918.5 L 1121 935.5 L 1120 952.5 L 1119 953.5 L 1118 970.5 L 1117 971.5 L 1117 995.5 L 1123 1026.5 L 1130 1048.5 L 1145 1076.5 L 1162 1097.5 L 1164 1101.5 L 1165 1112.5 L 1157.5 1122 L 1148.5 1124 L 1129.5 1119 Q 1115.2 1110.8 1105 1098.5 L 1083.5 1064 L 1070.5 1061 L 1054.5 1060 L 1049.5 1058 L 1033.5 1057 L 1028.5 1055 L 1014.5 1054 Q 1005.8 1050.2 993.5 1050 L 989.5 1048 L 984.5 1048 L 975.5 1045 L 952.5 1041 L 934.5 1035 L 927.5 1034 L 924.5 1032 L 916.5 1031 L 913.5 1029 L 880.5 1019 L 840.5 1003 L 794.5 981 L 758 960 L 757 954.5 Q 760 949.5 766.5 948 L 797.5 966 L 809.5 972 L 814.5 973 L 828.5 981 L 874.5 1000 L 893.5 1007 L 900.5 1008 L 903.5 1010 L 918.5 1014 L 921.5 1016 L 970.5 1029 L 981.5 1030 L 985.5 1032 L 995.5 1033 L 999.5 1035 L 1011.5 1036 L 1015.5 1038 L 1022.5 1038 L 1035.5 1041 L 1059.5 1043 L 1067.5 1045 L 1077.5 1045 L 1079 1042.5 Q 1075.7 1036.8 1076 1027.5 L 1074 1024.5 L 1073 1011.5 L 1071 1005.5 L 1071 996.5 L 1070 995.5 L 1070 961.5 L 1071 960.5 L 1071 951.5 L 1073 946.5 L 1074 932.5 L 1076 927.5 L 1077 910.5 L 1079 904.5 L 1080 888.5 L 1082 883.5 L 1082 874.5 L 1083 873.5 L 1083 820.5 L 1082 819.5 L 1082 807.5 L 1080 800.5 L 1080 793.5 L 1077 783.5 L 1076 774.5 L 1074 771.5 L 1073 764.5 L 1067 749.5 L 1067 746.5 L 1060 730.5 Q 1039 691 1006.5 663 L 990 651 L 988 645.5 L 994 636.5 L 1011 618.5 L 1011 617 L 1016.5 615 Z " /><path fill="#ffffff" stroke="#ffffff" stroke-width="1" opacity="0.996078431372549" d="M 826.5 683 L 841.5 683 L 859 689 Q 861.9 691.9 861 699.5 Q 857.6 711.1 848.5 717 L 837.5 725 L 820.5 733 L 795.5 739 L 774.5 739 L 758.5 735 L 749 728.5 L 750 721.5 L 756.5 714 L 772.5 702 L 789.5 693 L 809.5 686 L 826.5 683 Z " /><path fill="#ffffff" stroke="#ffffff" stroke-width="1" opacity="0.996078431372549" d="M 751.5 748 L 774.5 749 L 786.5 754 L 792 759.5 L 793 765.5 L 788 776 L 785 777.5 Q 785.8 779.8 783.5 779 L 769.5 789 L 745.5 798 L 733.5 799 L 732.5 800 L 706.5 800 L 686.5 795 L 679 789.5 L 678 784.5 L 683.5 777 L 686.5 775 L 694.5 768 L 711.5 759 L 729.5 752 L 751.5 748 Z " /><path fill="#ffffff" stroke="#ffffff" stroke-width="1" opacity="0.996078431372549" d="M 844.5 782 Q 854.9 780.6 858 786.5 L 861 793.5 L 862 803.5 L 861 804.5 L 861 814.5 L 859 821.5 L 851 839.5 L 846 848.5 L 828.5 870 Q 826.3 869.3 827 871.5 L 812.5 883 L 805.5 885 L 803 884 L 799 875.5 L 796 863.5 L 796 845.5 L 799 833.5 L 806 815.5 Q 814 800.4 826.5 790 L 836.5 784 L 844.5 782 Z " /><path fill="#ffffff" stroke="#ffffff" stroke-width="1" opacity="0.996078431372549" d="M 672.5 810 L 698.5 812 Q 709.8 815.2 717 822.5 L 718 828.5 L 716 833.5 L 706.5 843 L 692.5 852 L 681.5 856 L 677.5 856 L 674.5 858 Q 669 856.5 667.5 859 L 636.5 859 L 621.5 856 L 610.5 852 L 598 843.5 L 597 838.5 L 599.5 835 Q 612.6 825.1 629.5 819 L 654.5 812 L 671.5 811 L 672.5 810 Z " /><path fill="#ffffff" stroke="#ffffff" stroke-width="1" opacity="0.996078431372549" d="M 765.5 840 L 771.5 840 L 779 846.5 Q 785.5 854.5 783 871.5 Q 771.2 908.7 744.5 931 L 731.5 940 L 724.5 941 L 721 938.5 L 717 929.5 L 715 911.5 L 716 910.5 L 716 902.5 L 718 892.5 L 724 876.5 Q 731.5 861.5 743.5 851 L 748.5 847 L 765.5 840 Z " /><path fill="#ffffff" stroke="#ffffff" stroke-width="1" opacity="0.996078431372549" d="M 576.5 863 L 594.5 863 L 609.5 866 L 624.5 872 L 631 878.5 Q 634.9 881.1 634 888.5 L 625.5 898 L 612.5 906 L 600.5 909 Q 594.3 907.2 592.5 910 L 563.5 910 L 553.5 908 L 536.5 902 L 525.5 896 L 516 886.5 Q 514.8 880.3 518.5 879 L 542.5 869 Q 550 869.5 553.5 866 L 568.5 865 L 576.5 863 Z " /><path fill="#ffffff" stroke="#ffffff" stroke-width="1" opacity="0.996078431372549" d="M 682.5 896 Q 695.4 894.1 699 901.5 Q 703 907.5 703 917.5 Q 700.6 932.1 694 942.5 Q 683 959 668.5 972 L 647.5 987 L 638.5 991 L 633.5 991 L 629 982.5 L 628 964.5 Q 630.8 962.8 629 956.5 L 636 936.5 Q 645.5 918.5 660.5 906 Q 668.9 898.4 682.5 896 Z " /><path fill="#ffffff" stroke="#ffffff" stroke-width="1" opacity="0.996078431372549" d="M 487.5 907 L 512.5 907 L 523.5 909 L 540.5 916 L 550 924.5 L 551 930.5 Q 548.6 939.1 541.5 943 L 528.5 949 L 519.5 950 L 515.5 952 L 488.5 953 L 487.5 952 L 475.5 952 L 455.5 947 L 442.5 940 L 431 929.5 L 431 926.5 L 435.5 922 L 456.5 913 L 487.5 907 Z " /><path fill="#ffffff" stroke="#ffffff" stroke-width="1" opacity="0.996078431372549" d="M 382.5 944 L 415.5 944 L 416.5 945 L 433.5 947 L 454.5 955 L 468 966.5 Q 467.5 974 462.5 977 L 445.5 985 L 421.5 987 L 413.5 985 L 399.5 984 L 395.5 982 L 384.5 980 L 364.5 971 Q 356.1 966.9 350.5 960 L 344.5 960 L 339.5 962 L 324.5 965 L 318.5 965 L 302.5 969 L 291.5 969 L 292.5 967 L 308.5 963 L 314.5 963 L 319.5 961 L 348.5 956 L 356.5 950 L 382.5 944 Z " /><path fill="#ffffff" stroke="#ffffff" stroke-width="1" opacity="0.996078431372549" d="M 593.5 946 L 601.5 946 L 611 950 L 615 959.5 L 615 968.5 L 613 975.5 L 603 992.5 L 582.5 1013 L 557.5 1029 L 544.5 1033 L 536.5 1033 L 534 1032 Q 530.1 1026.8 532 1014.5 L 534 1011.5 L 535 1002.5 L 541 988.5 Q 550.6 972.1 564.5 960 L 582.5 949 L 593.5 946 Z " /><path fill="#ffffff" stroke="#ffffff" stroke-width="1" opacity="0.996078431372549" d="M 344.5 979 Q 351.5 977.5 351 980.5 L 345.5 984 L 335.5 985 L 316.5 991 L 311.5 991 L 299.5 995 L 285 997 Q 283.9 994.3 286.5 995 L 307.5 988 L 312.5 988 L 344.5 979 Z " /><path fill="#ffffff" stroke="#ffffff" stroke-width="1" opacity="0.996078431372549" d="M 491.5 987 L 509.5 987 L 515 990.5 L 517 993.5 L 517 1006.5 L 515 1013.5 L 502 1031 L 486.5 1044 L 458.5 1060 L 432.5 1066 L 426.5 1069 L 393.5 1079 L 381.5 1080 L 382.5 1078 L 429 1063 L 426 1050.5 L 428 1041.5 L 430 1039.5 L 431 1033.5 L 434 1028.5 Q 442.5 1014.5 455.5 1005 Q 469.4 992 491.5 987 Z " /><path fill="#ffffff" stroke="#ffffff" stroke-width="1" opacity="0.996078431372549" d="M 385.5 990 Q 393 992.5 404.5 991 Q 414 992.5 420 997.5 Q 422.6 1000.4 422 1006.5 Q 419.5 1015.5 412.5 1020 Q 401.2 1029.7 384.5 1034 L 359.5 1039 L 336.5 1039 L 319.5 1035 L 309.5 1029 L 305.5 1029 L 273.5 1038 L 264.5 1039 L 260.5 1041 L 244 1043 L 245.5 1040 L 263.5 1035 L 267.5 1035 L 271.5 1033 L 280.5 1032 L 299.5 1026 L 303.5 1026 L 311 1020.5 L 318.5 1012 Q 332.4 1001.9 350.5 996 L 362.5 994 L 366.5 992 L 384.5 991 L 385.5 990 Z " /><path fill="#ffffff" stroke="#ffffff" stroke-width="1" opacity="0.996078431372549" d="M 400.5 1045 Q 406.6 1043.8 406 1046.5 L 400.5 1050 L 370.5 1059 L 359.5 1061 L 356.5 1063 L 343 1064 L 344.5 1061 L 359.5 1058 L 369.5 1055 L 374.5 1052 L 400.5 1045 Z " /></svg>